<svg xmlns="http://www.w3.org/2000/svg" viewBox="0 0 190 55" width="150" height="55">
    <g fill="none">
        <path fill="#BCBBBB"
              d="M41.3 46.3H38V43h-1.5v8.1H38v-3.5h3.3v3.6h1.6V43h-1.6v3.3zm5.9-3.4c-.8 0-1.3.1-1.9.4l-.1.1c-.3.2-.5.3-.9.8l-.1.2 1.2 1 .1-.2c.2-.3.4-.4.6-.5.3-.1.7-.2 1.1-.2 1.3 0 1.8.4 1.8 1.4v.5h-2.1c-1.8 0-2.9.9-2.9 2.5s1.1 2.5 2.9 2.5c.5 0 1-.1 1.5-.3.2-.1.3-.2.5-.3v.6h1.7v-5.7c0-1.9-1.1-2.8-3.4-2.8zm1.7 5.2c0 1.2-.5 1.7-1.8 1.7-1.4 0-1.7-.4-1.7-1.1 0-.5.2-1.2 1.6-1.2h1.9v.6zm9.4-5.1c-.6 0-1 .1-1.4.3-.2.1-.3.2-.5.3V43h-1.6v11.6h1.6v-4.1l.1.1c.2.2.3.3.6.4l.2.1c.4.1.7.2 1.1.2 2.1 0 3-1.2 3-4 .1-2.9-1-4.3-3.1-4.3zm0 6.8c-1.1 0-1.8-.5-1.8-2.7 0-2.4.9-2.7 1.7-2.7 1.1 0 1.8.5 1.8 2.7 0 2.4-.8 2.7-1.7 2.7zm7.2-1.2l-2-5.8h-1.6l2.9 7.7-.6 1.4c-.3.7-.5.8-1.1.8h-.6v1.5h.7c1 0 1.8-.6 2.2-1.6l3.6-9.9h-1.6l-1.9 5.9zm9.3.4c-.2.1-.3.3-.4.4-.2.2-.3.2-.5.3-.2.1-.4.1-.7.1-1.4 0-2.1-.9-2.1-2.7 0-1.2.4-2.7 2.1-2.7.2 0 .5 0 .7.1.2.1.4.2.6.5l.1.2 1.2-1-.1-.2c-.5-.6-.8-.8-1.3-1-.4-.1-.9-.3-1.4-.3-2.2 0-3.6 1.6-3.6 4.2s1.4 4.2 3.6 4.2c.5 0 1-.1 1.3-.2.4-.1.6-.3 1-.5.1-.1.3-.2.4-.3l.2-.2-1.2-1 .1.1zm7.2 0c-.2.1-.3.3-.4.4-.2.2-.3.2-.5.3-.2.1-.4.1-.7.1-1.4 0-2.1-.9-2.1-2.7 0-1.2.4-2.7 2.1-2.7.2 0 .5 0 .7.1.2.1.4.2.7.6l.1.2 1.2-1-.1-.2c-.5-.6-.8-.8-1.2-1-.2-.1-.4-.1-.6-.2-.2-.1-.4-.1-.7-.2h-.1c-2.2 0-3.6 1.6-3.6 4.2s1.4 4.2 3.6 4.2c.5 0 1-.1 1.4-.2.3-.1.5-.2.8-.5.2-.1.3-.2.6-.4l.2-.2-1.2-1-.2.2zm9.1-6h-2L86 46.3V43h-1.6v8.2H86v-3.7l3.3 3.7h2l-4-4.3 3.8-3.9zm3.3 0c-1 0-1.8.3-2.4.9-.7.7-1 1.6-1 3.2s.3 2.5 1 3.2c.6.6 1.4.9 2.4.9s1.8-.3 2.4-.9c.7-.7 1-1.6 1-3.2s-.3-2.5-1-3.2c-.7-.6-1.6-.9-2.4-.9zm1.3 6.2c-.3.3-.8.5-1.3.5s-.9-.2-1.3-.5c-.4-.4-.5-.9-.5-2.2 0-1.2.1-1.8.5-2.2.3-.3.7-.4 1.3-.5.5 0 .9.2 1.2.5.4.4.5 1 .5 2.2.1 1.2 0 1.8-.4 2.2zm9.8-6.2l-2.5 4.9-2.5-4.9h-1.4v8.2h1.5v-4.9l1.9 3.6h1.1l1.8-3.5v4.8h1.6V43h-1.5z"/>
        <path fill="#222426"
              d="M42.8 31.1l-2.2-.2c-1.7-.1-2.3-.8-2.3-2 0-1.4 1-2.2 3-2.2 1.4 0 2.6.3 3.6 1.1l1.3-1.3c-1.2-1-2.9-1.4-4.8-1.4-2.9 0-4.9 1.5-4.9 3.9 0 2.2 1.4 3.4 4 3.6l2.2.2c1.6.1 2.2.8 2.2 2 0 1.6-1.4 2.4-3.6 2.4-1.7 0-3.1-.4-4.2-1.6l-1.3 1.3c1.5 1.4 3.2 1.9 5.5 1.9 3.2 0 5.5-1.5 5.5-4.1 0-2.5-1.6-3.4-4-3.6zm16.8-6c-2.2 0-3.5.4-4.7 1.9l1.3 1.3c.8-1.1 1.7-1.5 3.4-1.5 2.5 0 3.4 1 3.4 2.9V31h-4c-3 0-4.6 1.5-4.6 3.9 0 1.1.4 2.1 1 2.7.8.9 1.9 1.2 3.8 1.2 1.8 0 2.8-.4 3.9-1.4v1.3h2v-9.1c-.1-3-1.9-4.5-5.5-4.5zm3.5 8.8c0 1.1-.2 1.9-.7 2.3-.8.8-1.9.9-3 .9-2.1 0-3.1-.7-3.1-2.3 0-1.6 1-2.4 3-2.4h3.8v1.5zm9.6-7.1c1.3 0 2.1.4 3.1 1.5l1.3-1.3c-1.4-1.5-2.5-2-4.4-2-3.4 0-5.9 2.3-5.9 6.9 0 4.6 2.6 6.9 5.9 6.9 1.9 0 3-.5 4.4-2l-1.3-1.3c-1 1.1-1.8 1.5-3.1 1.5s-2.4-.5-3.1-1.5c-.6-.9-.9-1.9-.9-3.6 0-1.7.2-2.7.9-3.6.7-1 1.8-1.5 3.1-1.5zm16.8-1.6h-2.4L81 31.1V19.2h-2v19.4h2v-4.9l2.4-2.4 4.5 7.3h2.4l-5.6-8.7 4.8-4.7zm9.3-.7c-2.1 0-3.5.8-4.3 1.7-1.3 1.3-1.6 2.9-1.6 5.4 0 2.5.3 4.1 1.6 5.4.9.9 2.3 1.7 4.3 1.7 2.1 0 3.5-.8 4.3-1.7 1.3-1.3 1.6-2.9 1.6-5.4 0-2.5-.3-4.1-1.6-5.4-.8-.9-2.3-1.7-4.3-1.7zm1.6 10.6c-.4.4-.9.6-1.6.6-.7 0-1.2-.2-1.6-.6-.7-.7-.8-2-.8-3.4s.1-2.7.8-3.4c.4-.4.9-.6 1.6-.6.7 0 1.2.2 1.6.6.7.7.8 1.9.8 3.4 0 1.4-.1 2.6-.8 3.4zM114 24.7l-2.8 8.6-2.8-8.6h-3.7l5.2 14h2.7l5.1-14H114zm9.6-.2c-3.6 0-6.1 2.6-6.1 7.1 0 5.7 3.2 7.2 6.5 7.2 2.5 0 3.9-.8 5.3-2.2l-2.1-2.1c-.9.9-1.6 1.3-3.2 1.3-2 0-3.1-1.3-3.1-3.1h8.8v-1.6c0-3.8-2.2-6.6-6.1-6.6zm-2.6 5.9c0-.6.1-1 .3-1.5.4-.8 1.2-1.4 2.3-1.4 1.2 0 2 .6 2.3 1.4.2.5.3.9.3 1.5H121zm13.9-4.4v-1.3h-3.4v14h3.5v-8.4c0-1.8 1.2-2.6 2.3-2.6.9 0 1.3.3 1.8.8l2.6-2.6c-1-1-1.9-1.3-3.3-1.3-1.5-.1-2.9.6-3.5 1.4zm7.9-2.8v15.4h3.5v-11h2.6v-2.7h-2.6v-1.5c0-.8.4-1.3 1.2-1.3h1.3v-3h-2c-2.8.1-4 2.1-4 4.1zm20.4 1.3c-2.1 0-3.5.8-4.3 1.7-1.3 1.3-1.6 2.9-1.6 5.4 0 2.5.3 4.1 1.6 5.4.9.9 2.3 1.7 4.3 1.7 2.1 0 3.5-.8 4.3-1.7 1.3-1.3 1.6-2.9 1.6-5.4 0-2.5-.3-4.1-1.6-5.4-.8-.9-2.2-1.7-4.3-1.7zm1.6 10.6c-.4.4-.9.6-1.6.6-.7 0-1.2-.2-1.6-.6-.7-.7-.8-2-.8-3.4s.1-2.7.8-3.4c.4-.4.9-.6 1.6-.6.7 0 1.2.2 1.6.6.7.7.8 1.9.8 3.4 0 1.4-.1 2.6-.8 3.4zm20.8-10.4l-2.3 8.6-2.8-8.6H178l-2.8 8.6-2.4-8.6h-3.7l4.3 14h2.9l2.9-8.8 2.9 8.8h2.9l4.3-14h-3.7zM154 34.4V19.2h-3.5v15.4c0 2 1.2 4 4.1 4h2v-3h-1.3c-1 .1-1.3-.3-1.3-1.2zM52.2 27.3l1.8-1.8h-3.7v-4.4h-2V35c0 2 1.1 3.6 3.4 3.6h1.4v-1.7h-1c-1.3 0-1.8-.7-1.8-2v-7.7l1.9.1c0-.1 0 0 0 0z"/>
        <path fill="#BCBBBB" d="M26.5 42V32h3.3v13.3H0V32h3.3v10z"/>
        <path fill="#F48024"
              d="M7 31.1l16.2 3.4.7-3.2-16.2-3.4-.7 3.2zm2.1-7.8l15 7 1.4-3-15-7-1.4 3zm4.2-7.4L26 26.5l2.1-2.5-12.7-10.6-2.1 2.5zm8.2-7.8l-2.7 2 9.9 13.3 2.7-2-9.9-13.3zM6.6 38.6h16.6v-3.3H6.6v3.3z"/>
    </g>
</svg>
